<svg width="24" height="25" viewBox="0 0 24 25" fill="none" xmlns="http://www.w3.org/2000/svg">
<path d="M15.2475 16.61L16.9275 14.93C17.1538 14.7066 17.4401 14.5536 17.7516 14.4897C18.0631 14.4258 18.3865 14.4537 18.6825 14.57L20.73 15.3875C21.0291 15.5089 21.2856 15.7162 21.4671 15.9831C21.6486 16.25 21.747 16.5647 21.75 16.8875V20.6375C21.7483 20.8571 21.7021 21.0741 21.6143 21.2753C21.5265 21.4766 21.3989 21.658 21.2391 21.8087C21.0793 21.9594 20.8907 22.0761 20.6847 22.152C20.4786 22.2278 20.2593 22.2612 20.04 22.25C5.69249 21.3575 2.79749 9.20753 2.24999 4.55753C2.22458 4.32918 2.2478 4.09804 2.31813 3.87931C2.38846 3.66058 2.5043 3.45922 2.65804 3.28848C2.81178 3.11774 2.99993 2.98148 3.21011 2.88868C3.42029 2.79587 3.64774 2.74862 3.87749 2.75003H7.49999C7.82325 2.75099 8.13883 2.84863 8.40614 3.0304C8.67345 3.21217 8.88027 3.46976 8.99999 3.77003L9.81749 5.81753C9.93768 6.11233 9.96835 6.43601 9.90565 6.74814C9.84296 7.06027 9.68969 7.347 9.46499 7.57253L7.78499 9.25253C7.78499 9.25253 8.75249 15.8 15.2475 16.61Z" fill="#431805"/>
</svg>
