<svg width="219" height="226" viewBox="0 0 219 226" fill="none" xmlns="http://www.w3.org/2000/svg">
<circle cx="18" cy="3" r="3" fill="url(#paint0_linear_5717_8122)"/>
<circle cx="18" cy="25" r="3" fill="url(#paint1_linear_5717_8122)"/>
<circle cx="18" cy="47" r="3" fill="url(#paint2_linear_5717_8122)"/>
<circle cx="18" cy="69" r="3" fill="url(#paint3_linear_5717_8122)"/>
<circle cx="18" cy="91" r="3" fill="url(#paint4_linear_5717_8122)"/>
<circle cx="18" cy="113" r="3" fill="url(#paint5_linear_5717_8122)"/>
<circle cx="18" cy="135" r="3" fill="url(#paint6_linear_5717_8122)"/>
<circle cx="18" cy="157" r="3" fill="url(#paint7_linear_5717_8122)"/>
<circle cx="18" cy="179" r="3" fill="url(#paint8_linear_5717_8122)"/>
<circle cx="18" cy="201" r="3" fill="url(#paint9_linear_5717_8122)"/>
<circle cx="18" cy="223" r="3" fill="url(#paint10_linear_5717_8122)"/>
<circle cx="40" cy="3" r="3" fill="url(#paint11_linear_5717_8122)"/>
<circle cx="40" cy="25" r="3" fill="url(#paint12_linear_5717_8122)"/>
<circle cx="40" cy="47" r="3" fill="url(#paint13_linear_5717_8122)"/>
<circle cx="40" cy="69" r="3" fill="url(#paint14_linear_5717_8122)"/>
<circle cx="40" cy="91" r="3" fill="url(#paint15_linear_5717_8122)"/>
<circle cx="40" cy="113" r="3" fill="url(#paint16_linear_5717_8122)"/>
<circle cx="40" cy="135" r="3" fill="url(#paint17_linear_5717_8122)"/>
<circle cx="40" cy="157" r="3" fill="url(#paint18_linear_5717_8122)"/>
<circle cx="40" cy="179" r="3" fill="url(#paint19_linear_5717_8122)"/>
<circle cx="40" cy="201" r="3" fill="url(#paint20_linear_5717_8122)"/>
<circle cx="40" cy="223" r="3" fill="url(#paint21_linear_5717_8122)"/>
<circle cx="62" cy="3" r="3" fill="url(#paint22_linear_5717_8122)"/>
<circle cx="62" cy="25" r="3" fill="url(#paint23_linear_5717_8122)"/>
<circle cx="62" cy="47" r="3" fill="url(#paint24_linear_5717_8122)"/>
<circle cx="62" cy="69" r="3" fill="url(#paint25_linear_5717_8122)"/>
<circle cx="62" cy="91" r="3" fill="url(#paint26_linear_5717_8122)"/>
<circle cx="62" cy="113" r="3" fill="url(#paint27_linear_5717_8122)"/>
<circle cx="62" cy="135" r="3" fill="url(#paint28_linear_5717_8122)"/>
<circle cx="62" cy="157" r="3" fill="url(#paint29_linear_5717_8122)"/>
<circle cx="62" cy="179" r="3" fill="url(#paint30_linear_5717_8122)"/>
<circle cx="62" cy="201" r="3" fill="url(#paint31_linear_5717_8122)"/>
<circle cx="62" cy="223" r="3" fill="url(#paint32_linear_5717_8122)"/>
<circle cx="84" cy="3" r="3" fill="url(#paint33_linear_5717_8122)"/>
<circle cx="84" cy="25" r="3" fill="url(#paint34_linear_5717_8122)"/>
<circle cx="84" cy="47" r="3" fill="url(#paint35_linear_5717_8122)"/>
<circle cx="84" cy="69" r="3" fill="url(#paint36_linear_5717_8122)"/>
<circle cx="84" cy="91" r="3" fill="url(#paint37_linear_5717_8122)"/>
<circle cx="84" cy="113" r="3" fill="url(#paint38_linear_5717_8122)"/>
<circle cx="84" cy="135" r="3" fill="url(#paint39_linear_5717_8122)"/>
<circle cx="84" cy="157" r="3" fill="url(#paint40_linear_5717_8122)"/>
<circle cx="84" cy="179" r="3" fill="url(#paint41_linear_5717_8122)"/>
<circle cx="84" cy="201" r="3" fill="url(#paint42_linear_5717_8122)"/>
<circle cx="84" cy="223" r="3" fill="url(#paint43_linear_5717_8122)"/>
<circle cx="106" cy="3" r="3" fill="url(#paint44_linear_5717_8122)"/>
<circle cx="106" cy="25" r="3" fill="url(#paint45_linear_5717_8122)"/>
<circle cx="106" cy="47" r="3" fill="url(#paint46_linear_5717_8122)"/>
<circle cx="106" cy="69" r="3" fill="url(#paint47_linear_5717_8122)"/>
<circle cx="106" cy="91" r="3" fill="url(#paint48_linear_5717_8122)"/>
<circle cx="106" cy="113" r="3" fill="url(#paint49_linear_5717_8122)"/>
<circle cx="106" cy="135" r="3" fill="url(#paint50_linear_5717_8122)"/>
<circle cx="106" cy="157" r="3" fill="url(#paint51_linear_5717_8122)"/>
<circle cx="106" cy="179" r="3" fill="url(#paint52_linear_5717_8122)"/>
<circle cx="106" cy="201" r="3" fill="url(#paint53_linear_5717_8122)"/>
<circle cx="106" cy="223" r="3" fill="url(#paint54_linear_5717_8122)"/>
<circle cx="128" cy="3" r="3" fill="url(#paint55_linear_5717_8122)"/>
<circle cx="128" cy="25" r="3" fill="url(#paint56_linear_5717_8122)"/>
<circle cx="128" cy="47" r="3" fill="url(#paint57_linear_5717_8122)"/>
<circle cx="128" cy="69" r="3" fill="url(#paint58_linear_5717_8122)"/>
<circle cx="128" cy="91" r="3" fill="url(#paint59_linear_5717_8122)"/>
<circle cx="128" cy="113" r="3" fill="url(#paint60_linear_5717_8122)"/>
<circle cx="128" cy="135" r="3" fill="url(#paint61_linear_5717_8122)"/>
<circle cx="128" cy="157" r="3" fill="url(#paint62_linear_5717_8122)"/>
<circle cx="128" cy="179" r="3" fill="url(#paint63_linear_5717_8122)"/>
<circle cx="128" cy="201" r="3" fill="url(#paint64_linear_5717_8122)"/>
<circle cx="128" cy="223" r="3" fill="url(#paint65_linear_5717_8122)"/>
<circle cx="150" cy="3" r="3" fill="url(#paint66_linear_5717_8122)"/>
<circle cx="150" cy="25" r="3" fill="url(#paint67_linear_5717_8122)"/>
<circle cx="150" cy="47" r="3" fill="url(#paint68_linear_5717_8122)"/>
<circle cx="150" cy="69" r="3" fill="url(#paint69_linear_5717_8122)"/>
<circle cx="150" cy="91" r="3" fill="url(#paint70_linear_5717_8122)"/>
<circle cx="150" cy="113" r="3" fill="url(#paint71_linear_5717_8122)"/>
<circle cx="150" cy="135" r="3" fill="url(#paint72_linear_5717_8122)"/>
<circle cx="150" cy="157" r="3" fill="url(#paint73_linear_5717_8122)"/>
<circle cx="150" cy="179" r="3" fill="url(#paint74_linear_5717_8122)"/>
<circle cx="150" cy="201" r="3" fill="url(#paint75_linear_5717_8122)"/>
<circle cx="150" cy="223" r="3" fill="url(#paint76_linear_5717_8122)"/>
<circle cx="172" cy="3" r="3" fill="url(#paint77_linear_5717_8122)"/>
<circle cx="172" cy="25" r="3" fill="url(#paint78_linear_5717_8122)"/>
<circle cx="172" cy="47" r="3" fill="url(#paint79_linear_5717_8122)"/>
<circle cx="172" cy="69" r="3" fill="url(#paint80_linear_5717_8122)"/>
<circle cx="172" cy="91" r="3" fill="url(#paint81_linear_5717_8122)"/>
<circle cx="172" cy="113" r="3" fill="url(#paint82_linear_5717_8122)"/>
<circle cx="172" cy="135" r="3" fill="url(#paint83_linear_5717_8122)"/>
<circle cx="172" cy="157" r="3" fill="url(#paint84_linear_5717_8122)"/>
<circle cx="172" cy="179" r="3" fill="url(#paint85_linear_5717_8122)"/>
<circle cx="172" cy="201" r="3" fill="url(#paint86_linear_5717_8122)"/>
<circle cx="172" cy="223" r="3" fill="url(#paint87_linear_5717_8122)"/>
<circle cx="194" cy="3" r="3" fill="url(#paint88_linear_5717_8122)"/>
<circle cx="194" cy="25" r="3" fill="url(#paint89_linear_5717_8122)"/>
<circle cx="194" cy="47" r="3" fill="url(#paint90_linear_5717_8122)"/>
<circle cx="194" cy="69" r="3" fill="url(#paint91_linear_5717_8122)"/>
<circle cx="194" cy="91" r="3" fill="url(#paint92_linear_5717_8122)"/>
<circle cx="194" cy="113" r="3" fill="url(#paint93_linear_5717_8122)"/>
<circle cx="194" cy="135" r="3" fill="url(#paint94_linear_5717_8122)"/>
<circle cx="194" cy="157" r="3" fill="url(#paint95_linear_5717_8122)"/>
<circle cx="194" cy="179" r="3" fill="url(#paint96_linear_5717_8122)"/>
<circle cx="194" cy="201" r="3" fill="url(#paint97_linear_5717_8122)"/>
<circle cx="194" cy="223" r="3" fill="url(#paint98_linear_5717_8122)"/>
<circle cx="216" cy="3" r="3" fill="url(#paint99_linear_5717_8122)"/>
<circle cx="216" cy="25" r="3" fill="url(#paint100_linear_5717_8122)"/>
<circle cx="216" cy="47" r="3" fill="url(#paint101_linear_5717_8122)"/>
<circle cx="216" cy="69" r="3" fill="url(#paint102_linear_5717_8122)"/>
<circle cx="216" cy="91" r="3" fill="url(#paint103_linear_5717_8122)"/>
<circle cx="216" cy="113" r="3" fill="url(#paint104_linear_5717_8122)"/>
<circle cx="216" cy="135" r="3" fill="url(#paint105_linear_5717_8122)"/>
<circle cx="216" cy="157" r="3" fill="url(#paint106_linear_5717_8122)"/>
<circle cx="216" cy="179" r="3" fill="url(#paint107_linear_5717_8122)"/>
<circle cx="216" cy="201" r="3" fill="url(#paint108_linear_5717_8122)"/>
<circle cx="216" cy="223" r="3" fill="url(#paint109_linear_5717_8122)"/>
<defs>
<linearGradient id="paint0_linear_5717_8122" x1="18" y1="0" x2="18" y2="6" gradientUnits="userSpaceOnUse">
<stop stop-color="#FD5001"/>
<stop offset="1" stop-color="#FFB901"/>
</linearGradient>
<linearGradient id="paint1_linear_5717_8122" x1="18" y1="22" x2="18" y2="28" gradientUnits="userSpaceOnUse">
<stop stop-color="#FD5001"/>
<stop offset="1" stop-color="#FFB901"/>
</linearGradient>
<linearGradient id="paint2_linear_5717_8122" x1="18" y1="44" x2="18" y2="50" gradientUnits="userSpaceOnUse">
<stop stop-color="#FD5001"/>
<stop offset="1" stop-color="#FFB901"/>
</linearGradient>
<linearGradient id="paint3_linear_5717_8122" x1="18" y1="66" x2="18" y2="72" gradientUnits="userSpaceOnUse">
<stop stop-color="#FD5001"/>
<stop offset="1" stop-color="#FFB901"/>
</linearGradient>
<linearGradient id="paint4_linear_5717_8122" x1="18" y1="88" x2="18" y2="94" gradientUnits="userSpaceOnUse">
<stop stop-color="#FD5001"/>
<stop offset="1" stop-color="#FFB901"/>
</linearGradient>
<linearGradient id="paint5_linear_5717_8122" x1="18" y1="110" x2="18" y2="116" gradientUnits="userSpaceOnUse">
<stop stop-color="#FD5001"/>
<stop offset="1" stop-color="#FFB901"/>
</linearGradient>
<linearGradient id="paint6_linear_5717_8122" x1="18" y1="132" x2="18" y2="138" gradientUnits="userSpaceOnUse">
<stop stop-color="#FD5001"/>
<stop offset="1" stop-color="#FFB901"/>
</linearGradient>
<linearGradient id="paint7_linear_5717_8122" x1="18" y1="154" x2="18" y2="160" gradientUnits="userSpaceOnUse">
<stop stop-color="#FD5001"/>
<stop offset="1" stop-color="#FFB901"/>
</linearGradient>
<linearGradient id="paint8_linear_5717_8122" x1="18" y1="176" x2="18" y2="182" gradientUnits="userSpaceOnUse">
<stop stop-color="#FD5001"/>
<stop offset="1" stop-color="#FFB901"/>
</linearGradient>
<linearGradient id="paint9_linear_5717_8122" x1="18" y1="198" x2="18" y2="204" gradientUnits="userSpaceOnUse">
<stop stop-color="#FD5001"/>
<stop offset="1" stop-color="#FFB901"/>
</linearGradient>
<linearGradient id="paint10_linear_5717_8122" x1="18" y1="220" x2="18" y2="226" gradientUnits="userSpaceOnUse">
<stop stop-color="#FD5001"/>
<stop offset="1" stop-color="#FFB901"/>
</linearGradient>
<linearGradient id="paint11_linear_5717_8122" x1="40" y1="0" x2="40" y2="6" gradientUnits="userSpaceOnUse">
<stop stop-color="#FD5001"/>
<stop offset="1" stop-color="#FFB901"/>
</linearGradient>
<linearGradient id="paint12_linear_5717_8122" x1="40" y1="22" x2="40" y2="28" gradientUnits="userSpaceOnUse">
<stop stop-color="#FD5001"/>
<stop offset="1" stop-color="#FFB901"/>
</linearGradient>
<linearGradient id="paint13_linear_5717_8122" x1="40" y1="44" x2="40" y2="50" gradientUnits="userSpaceOnUse">
<stop stop-color="#FD5001"/>
<stop offset="1" stop-color="#FFB901"/>
</linearGradient>
<linearGradient id="paint14_linear_5717_8122" x1="40" y1="66" x2="40" y2="72" gradientUnits="userSpaceOnUse">
<stop stop-color="#FD5001"/>
<stop offset="1" stop-color="#FFB901"/>
</linearGradient>
<linearGradient id="paint15_linear_5717_8122" x1="40" y1="88" x2="40" y2="94" gradientUnits="userSpaceOnUse">
<stop stop-color="#FD5001"/>
<stop offset="1" stop-color="#FFB901"/>
</linearGradient>
<linearGradient id="paint16_linear_5717_8122" x1="40" y1="110" x2="40" y2="116" gradientUnits="userSpaceOnUse">
<stop stop-color="#FD5001"/>
<stop offset="1" stop-color="#FFB901"/>
</linearGradient>
<linearGradient id="paint17_linear_5717_8122" x1="40" y1="132" x2="40" y2="138" gradientUnits="userSpaceOnUse">
<stop stop-color="#FD5001"/>
<stop offset="1" stop-color="#FFB901"/>
</linearGradient>
<linearGradient id="paint18_linear_5717_8122" x1="40" y1="154" x2="40" y2="160" gradientUnits="userSpaceOnUse">
<stop stop-color="#FD5001"/>
<stop offset="1" stop-color="#FFB901"/>
</linearGradient>
<linearGradient id="paint19_linear_5717_8122" x1="40" y1="176" x2="40" y2="182" gradientUnits="userSpaceOnUse">
<stop stop-color="#FD5001"/>
<stop offset="1" stop-color="#FFB901"/>
</linearGradient>
<linearGradient id="paint20_linear_5717_8122" x1="40" y1="198" x2="40" y2="204" gradientUnits="userSpaceOnUse">
<stop stop-color="#FD5001"/>
<stop offset="1" stop-color="#FFB901"/>
</linearGradient>
<linearGradient id="paint21_linear_5717_8122" x1="40" y1="220" x2="40" y2="226" gradientUnits="userSpaceOnUse">
<stop stop-color="#FD5001"/>
<stop offset="1" stop-color="#FFB901"/>
</linearGradient>
<linearGradient id="paint22_linear_5717_8122" x1="62" y1="0" x2="62" y2="6" gradientUnits="userSpaceOnUse">
<stop stop-color="#FD5001"/>
<stop offset="1" stop-color="#FFB901"/>
</linearGradient>
<linearGradient id="paint23_linear_5717_8122" x1="62" y1="22" x2="62" y2="28" gradientUnits="userSpaceOnUse">
<stop stop-color="#FD5001"/>
<stop offset="1" stop-color="#FFB901"/>
</linearGradient>
<linearGradient id="paint24_linear_5717_8122" x1="62" y1="44" x2="62" y2="50" gradientUnits="userSpaceOnUse">
<stop stop-color="#FD5001"/>
<stop offset="1" stop-color="#FFB901"/>
</linearGradient>
<linearGradient id="paint25_linear_5717_8122" x1="62" y1="66" x2="62" y2="72" gradientUnits="userSpaceOnUse">
<stop stop-color="#FD5001"/>
<stop offset="1" stop-color="#FFB901"/>
</linearGradient>
<linearGradient id="paint26_linear_5717_8122" x1="62" y1="88" x2="62" y2="94" gradientUnits="userSpaceOnUse">
<stop stop-color="#FD5001"/>
<stop offset="1" stop-color="#FFB901"/>
</linearGradient>
<linearGradient id="paint27_linear_5717_8122" x1="62" y1="110" x2="62" y2="116" gradientUnits="userSpaceOnUse">
<stop stop-color="#FD5001"/>
<stop offset="1" stop-color="#FFB901"/>
</linearGradient>
<linearGradient id="paint28_linear_5717_8122" x1="62" y1="132" x2="62" y2="138" gradientUnits="userSpaceOnUse">
<stop stop-color="#FD5001"/>
<stop offset="1" stop-color="#FFB901"/>
</linearGradient>
<linearGradient id="paint29_linear_5717_8122" x1="62" y1="154" x2="62" y2="160" gradientUnits="userSpaceOnUse">
<stop stop-color="#FD5001"/>
<stop offset="1" stop-color="#FFB901"/>
</linearGradient>
<linearGradient id="paint30_linear_5717_8122" x1="62" y1="176" x2="62" y2="182" gradientUnits="userSpaceOnUse">
<stop stop-color="#FD5001"/>
<stop offset="1" stop-color="#FFB901"/>
</linearGradient>
<linearGradient id="paint31_linear_5717_8122" x1="62" y1="198" x2="62" y2="204" gradientUnits="userSpaceOnUse">
<stop stop-color="#FD5001"/>
<stop offset="1" stop-color="#FFB901"/>
</linearGradient>
<linearGradient id="paint32_linear_5717_8122" x1="62" y1="220" x2="62" y2="226" gradientUnits="userSpaceOnUse">
<stop stop-color="#FD5001"/>
<stop offset="1" stop-color="#FFB901"/>
</linearGradient>
<linearGradient id="paint33_linear_5717_8122" x1="84" y1="0" x2="84" y2="6" gradientUnits="userSpaceOnUse">
<stop stop-color="#FD5001"/>
<stop offset="1" stop-color="#FFB901"/>
</linearGradient>
<linearGradient id="paint34_linear_5717_8122" x1="84" y1="22" x2="84" y2="28" gradientUnits="userSpaceOnUse">
<stop stop-color="#FD5001"/>
<stop offset="1" stop-color="#FFB901"/>
</linearGradient>
<linearGradient id="paint35_linear_5717_8122" x1="84" y1="44" x2="84" y2="50" gradientUnits="userSpaceOnUse">
<stop stop-color="#FD5001"/>
<stop offset="1" stop-color="#FFB901"/>
</linearGradient>
<linearGradient id="paint36_linear_5717_8122" x1="84" y1="66" x2="84" y2="72" gradientUnits="userSpaceOnUse">
<stop stop-color="#FD5001"/>
<stop offset="1" stop-color="#FFB901"/>
</linearGradient>
<linearGradient id="paint37_linear_5717_8122" x1="84" y1="88" x2="84" y2="94" gradientUnits="userSpaceOnUse">
<stop stop-color="#FD5001"/>
<stop offset="1" stop-color="#FFB901"/>
</linearGradient>
<linearGradient id="paint38_linear_5717_8122" x1="84" y1="110" x2="84" y2="116" gradientUnits="userSpaceOnUse">
<stop stop-color="#FD5001"/>
<stop offset="1" stop-color="#FFB901"/>
</linearGradient>
<linearGradient id="paint39_linear_5717_8122" x1="84" y1="132" x2="84" y2="138" gradientUnits="userSpaceOnUse">
<stop stop-color="#FD5001"/>
<stop offset="1" stop-color="#FFB901"/>
</linearGradient>
<linearGradient id="paint40_linear_5717_8122" x1="84" y1="154" x2="84" y2="160" gradientUnits="userSpaceOnUse">
<stop stop-color="#FD5001"/>
<stop offset="1" stop-color="#FFB901"/>
</linearGradient>
<linearGradient id="paint41_linear_5717_8122" x1="84" y1="176" x2="84" y2="182" gradientUnits="userSpaceOnUse">
<stop stop-color="#FD5001"/>
<stop offset="1" stop-color="#FFB901"/>
</linearGradient>
<linearGradient id="paint42_linear_5717_8122" x1="84" y1="198" x2="84" y2="204" gradientUnits="userSpaceOnUse">
<stop stop-color="#FD5001"/>
<stop offset="1" stop-color="#FFB901"/>
</linearGradient>
<linearGradient id="paint43_linear_5717_8122" x1="84" y1="220" x2="84" y2="226" gradientUnits="userSpaceOnUse">
<stop stop-color="#FD5001"/>
<stop offset="1" stop-color="#FFB901"/>
</linearGradient>
<linearGradient id="paint44_linear_5717_8122" x1="106" y1="0" x2="106" y2="6" gradientUnits="userSpaceOnUse">
<stop stop-color="#FD5001"/>
<stop offset="1" stop-color="#FFB901"/>
</linearGradient>
<linearGradient id="paint45_linear_5717_8122" x1="106" y1="22" x2="106" y2="28" gradientUnits="userSpaceOnUse">
<stop stop-color="#FD5001"/>
<stop offset="1" stop-color="#FFB901"/>
</linearGradient>
<linearGradient id="paint46_linear_5717_8122" x1="106" y1="44" x2="106" y2="50" gradientUnits="userSpaceOnUse">
<stop stop-color="#FD5001"/>
<stop offset="1" stop-color="#FFB901"/>
</linearGradient>
<linearGradient id="paint47_linear_5717_8122" x1="106" y1="66" x2="106" y2="72" gradientUnits="userSpaceOnUse">
<stop stop-color="#FD5001"/>
<stop offset="1" stop-color="#FFB901"/>
</linearGradient>
<linearGradient id="paint48_linear_5717_8122" x1="106" y1="88" x2="106" y2="94" gradientUnits="userSpaceOnUse">
<stop stop-color="#FD5001"/>
<stop offset="1" stop-color="#FFB901"/>
</linearGradient>
<linearGradient id="paint49_linear_5717_8122" x1="106" y1="110" x2="106" y2="116" gradientUnits="userSpaceOnUse">
<stop stop-color="#FD5001"/>
<stop offset="1" stop-color="#FFB901"/>
</linearGradient>
<linearGradient id="paint50_linear_5717_8122" x1="106" y1="132" x2="106" y2="138" gradientUnits="userSpaceOnUse">
<stop stop-color="#FD5001"/>
<stop offset="1" stop-color="#FFB901"/>
</linearGradient>
<linearGradient id="paint51_linear_5717_8122" x1="106" y1="154" x2="106" y2="160" gradientUnits="userSpaceOnUse">
<stop stop-color="#FD5001"/>
<stop offset="1" stop-color="#FFB901"/>
</linearGradient>
<linearGradient id="paint52_linear_5717_8122" x1="106" y1="176" x2="106" y2="182" gradientUnits="userSpaceOnUse">
<stop stop-color="#FD5001"/>
<stop offset="1" stop-color="#FFB901"/>
</linearGradient>
<linearGradient id="paint53_linear_5717_8122" x1="106" y1="198" x2="106" y2="204" gradientUnits="userSpaceOnUse">
<stop stop-color="#FD5001"/>
<stop offset="1" stop-color="#FFB901"/>
</linearGradient>
<linearGradient id="paint54_linear_5717_8122" x1="106" y1="220" x2="106" y2="226" gradientUnits="userSpaceOnUse">
<stop stop-color="#FD5001"/>
<stop offset="1" stop-color="#FFB901"/>
</linearGradient>
<linearGradient id="paint55_linear_5717_8122" x1="128" y1="0" x2="128" y2="6" gradientUnits="userSpaceOnUse">
<stop stop-color="#FD5001"/>
<stop offset="1" stop-color="#FFB901"/>
</linearGradient>
<linearGradient id="paint56_linear_5717_8122" x1="128" y1="22" x2="128" y2="28" gradientUnits="userSpaceOnUse">
<stop stop-color="#FD5001"/>
<stop offset="1" stop-color="#FFB901"/>
</linearGradient>
<linearGradient id="paint57_linear_5717_8122" x1="128" y1="44" x2="128" y2="50" gradientUnits="userSpaceOnUse">
<stop stop-color="#FD5001"/>
<stop offset="1" stop-color="#FFB901"/>
</linearGradient>
<linearGradient id="paint58_linear_5717_8122" x1="128" y1="66" x2="128" y2="72" gradientUnits="userSpaceOnUse">
<stop stop-color="#FD5001"/>
<stop offset="1" stop-color="#FFB901"/>
</linearGradient>
<linearGradient id="paint59_linear_5717_8122" x1="128" y1="88" x2="128" y2="94" gradientUnits="userSpaceOnUse">
<stop stop-color="#FD5001"/>
<stop offset="1" stop-color="#FFB901"/>
</linearGradient>
<linearGradient id="paint60_linear_5717_8122" x1="128" y1="110" x2="128" y2="116" gradientUnits="userSpaceOnUse">
<stop stop-color="#FD5001"/>
<stop offset="1" stop-color="#FFB901"/>
</linearGradient>
<linearGradient id="paint61_linear_5717_8122" x1="128" y1="132" x2="128" y2="138" gradientUnits="userSpaceOnUse">
<stop stop-color="#FD5001"/>
<stop offset="1" stop-color="#FFB901"/>
</linearGradient>
<linearGradient id="paint62_linear_5717_8122" x1="128" y1="154" x2="128" y2="160" gradientUnits="userSpaceOnUse">
<stop stop-color="#FD5001"/>
<stop offset="1" stop-color="#FFB901"/>
</linearGradient>
<linearGradient id="paint63_linear_5717_8122" x1="128" y1="176" x2="128" y2="182" gradientUnits="userSpaceOnUse">
<stop stop-color="#FD5001"/>
<stop offset="1" stop-color="#FFB901"/>
</linearGradient>
<linearGradient id="paint64_linear_5717_8122" x1="128" y1="198" x2="128" y2="204" gradientUnits="userSpaceOnUse">
<stop stop-color="#FD5001"/>
<stop offset="1" stop-color="#FFB901"/>
</linearGradient>
<linearGradient id="paint65_linear_5717_8122" x1="128" y1="220" x2="128" y2="226" gradientUnits="userSpaceOnUse">
<stop stop-color="#FD5001"/>
<stop offset="1" stop-color="#FFB901"/>
</linearGradient>
<linearGradient id="paint66_linear_5717_8122" x1="150" y1="0" x2="150" y2="6" gradientUnits="userSpaceOnUse">
<stop stop-color="#FD5001"/>
<stop offset="1" stop-color="#FFB901"/>
</linearGradient>
<linearGradient id="paint67_linear_5717_8122" x1="150" y1="22" x2="150" y2="28" gradientUnits="userSpaceOnUse">
<stop stop-color="#FD5001"/>
<stop offset="1" stop-color="#FFB901"/>
</linearGradient>
<linearGradient id="paint68_linear_5717_8122" x1="150" y1="44" x2="150" y2="50" gradientUnits="userSpaceOnUse">
<stop stop-color="#FD5001"/>
<stop offset="1" stop-color="#FFB901"/>
</linearGradient>
<linearGradient id="paint69_linear_5717_8122" x1="150" y1="66" x2="150" y2="72" gradientUnits="userSpaceOnUse">
<stop stop-color="#FD5001"/>
<stop offset="1" stop-color="#FFB901"/>
</linearGradient>
<linearGradient id="paint70_linear_5717_8122" x1="150" y1="88" x2="150" y2="94" gradientUnits="userSpaceOnUse">
<stop stop-color="#FD5001"/>
<stop offset="1" stop-color="#FFB901"/>
</linearGradient>
<linearGradient id="paint71_linear_5717_8122" x1="150" y1="110" x2="150" y2="116" gradientUnits="userSpaceOnUse">
<stop stop-color="#FD5001"/>
<stop offset="1" stop-color="#FFB901"/>
</linearGradient>
<linearGradient id="paint72_linear_5717_8122" x1="150" y1="132" x2="150" y2="138" gradientUnits="userSpaceOnUse">
<stop stop-color="#FD5001"/>
<stop offset="1" stop-color="#FFB901"/>
</linearGradient>
<linearGradient id="paint73_linear_5717_8122" x1="150" y1="154" x2="150" y2="160" gradientUnits="userSpaceOnUse">
<stop stop-color="#FD5001"/>
<stop offset="1" stop-color="#FFB901"/>
</linearGradient>
<linearGradient id="paint74_linear_5717_8122" x1="150" y1="176" x2="150" y2="182" gradientUnits="userSpaceOnUse">
<stop stop-color="#FD5001"/>
<stop offset="1" stop-color="#FFB901"/>
</linearGradient>
<linearGradient id="paint75_linear_5717_8122" x1="150" y1="198" x2="150" y2="204" gradientUnits="userSpaceOnUse">
<stop stop-color="#FD5001"/>
<stop offset="1" stop-color="#FFB901"/>
</linearGradient>
<linearGradient id="paint76_linear_5717_8122" x1="150" y1="220" x2="150" y2="226" gradientUnits="userSpaceOnUse">
<stop stop-color="#FD5001"/>
<stop offset="1" stop-color="#FFB901"/>
</linearGradient>
<linearGradient id="paint77_linear_5717_8122" x1="172" y1="0" x2="172" y2="6" gradientUnits="userSpaceOnUse">
<stop stop-color="#FD5001"/>
<stop offset="1" stop-color="#FFB901"/>
</linearGradient>
<linearGradient id="paint78_linear_5717_8122" x1="172" y1="22" x2="172" y2="28" gradientUnits="userSpaceOnUse">
<stop stop-color="#FD5001"/>
<stop offset="1" stop-color="#FFB901"/>
</linearGradient>
<linearGradient id="paint79_linear_5717_8122" x1="172" y1="44" x2="172" y2="50" gradientUnits="userSpaceOnUse">
<stop stop-color="#FD5001"/>
<stop offset="1" stop-color="#FFB901"/>
</linearGradient>
<linearGradient id="paint80_linear_5717_8122" x1="172" y1="66" x2="172" y2="72" gradientUnits="userSpaceOnUse">
<stop stop-color="#FD5001"/>
<stop offset="1" stop-color="#FFB901"/>
</linearGradient>
<linearGradient id="paint81_linear_5717_8122" x1="172" y1="88" x2="172" y2="94" gradientUnits="userSpaceOnUse">
<stop stop-color="#FD5001"/>
<stop offset="1" stop-color="#FFB901"/>
</linearGradient>
<linearGradient id="paint82_linear_5717_8122" x1="172" y1="110" x2="172" y2="116" gradientUnits="userSpaceOnUse">
<stop stop-color="#FD5001"/>
<stop offset="1" stop-color="#FFB901"/>
</linearGradient>
<linearGradient id="paint83_linear_5717_8122" x1="172" y1="132" x2="172" y2="138" gradientUnits="userSpaceOnUse">
<stop stop-color="#FD5001"/>
<stop offset="1" stop-color="#FFB901"/>
</linearGradient>
<linearGradient id="paint84_linear_5717_8122" x1="172" y1="154" x2="172" y2="160" gradientUnits="userSpaceOnUse">
<stop stop-color="#FD5001"/>
<stop offset="1" stop-color="#FFB901"/>
</linearGradient>
<linearGradient id="paint85_linear_5717_8122" x1="172" y1="176" x2="172" y2="182" gradientUnits="userSpaceOnUse">
<stop stop-color="#FD5001"/>
<stop offset="1" stop-color="#FFB901"/>
</linearGradient>
<linearGradient id="paint86_linear_5717_8122" x1="172" y1="198" x2="172" y2="204" gradientUnits="userSpaceOnUse">
<stop stop-color="#FD5001"/>
<stop offset="1" stop-color="#FFB901"/>
</linearGradient>
<linearGradient id="paint87_linear_5717_8122" x1="172" y1="220" x2="172" y2="226" gradientUnits="userSpaceOnUse">
<stop stop-color="#FD5001"/>
<stop offset="1" stop-color="#FFB901"/>
</linearGradient>
<linearGradient id="paint88_linear_5717_8122" x1="194" y1="0" x2="194" y2="6" gradientUnits="userSpaceOnUse">
<stop stop-color="#FD5001"/>
<stop offset="1" stop-color="#FFB901"/>
</linearGradient>
<linearGradient id="paint89_linear_5717_8122" x1="194" y1="22" x2="194" y2="28" gradientUnits="userSpaceOnUse">
<stop stop-color="#FD5001"/>
<stop offset="1" stop-color="#FFB901"/>
</linearGradient>
<linearGradient id="paint90_linear_5717_8122" x1="194" y1="44" x2="194" y2="50" gradientUnits="userSpaceOnUse">
<stop stop-color="#FD5001"/>
<stop offset="1" stop-color="#FFB901"/>
</linearGradient>
<linearGradient id="paint91_linear_5717_8122" x1="194" y1="66" x2="194" y2="72" gradientUnits="userSpaceOnUse">
<stop stop-color="#FD5001"/>
<stop offset="1" stop-color="#FFB901"/>
</linearGradient>
<linearGradient id="paint92_linear_5717_8122" x1="194" y1="88" x2="194" y2="94" gradientUnits="userSpaceOnUse">
<stop stop-color="#FD5001"/>
<stop offset="1" stop-color="#FFB901"/>
</linearGradient>
<linearGradient id="paint93_linear_5717_8122" x1="194" y1="110" x2="194" y2="116" gradientUnits="userSpaceOnUse">
<stop stop-color="#FD5001"/>
<stop offset="1" stop-color="#FFB901"/>
</linearGradient>
<linearGradient id="paint94_linear_5717_8122" x1="194" y1="132" x2="194" y2="138" gradientUnits="userSpaceOnUse">
<stop stop-color="#FD5001"/>
<stop offset="1" stop-color="#FFB901"/>
</linearGradient>
<linearGradient id="paint95_linear_5717_8122" x1="194" y1="154" x2="194" y2="160" gradientUnits="userSpaceOnUse">
<stop stop-color="#FD5001"/>
<stop offset="1" stop-color="#FFB901"/>
</linearGradient>
<linearGradient id="paint96_linear_5717_8122" x1="194" y1="176" x2="194" y2="182" gradientUnits="userSpaceOnUse">
<stop stop-color="#FD5001"/>
<stop offset="1" stop-color="#FFB901"/>
</linearGradient>
<linearGradient id="paint97_linear_5717_8122" x1="194" y1="198" x2="194" y2="204" gradientUnits="userSpaceOnUse">
<stop stop-color="#FD5001"/>
<stop offset="1" stop-color="#FFB901"/>
</linearGradient>
<linearGradient id="paint98_linear_5717_8122" x1="194" y1="220" x2="194" y2="226" gradientUnits="userSpaceOnUse">
<stop stop-color="#FD5001"/>
<stop offset="1" stop-color="#FFB901"/>
</linearGradient>
<linearGradient id="paint99_linear_5717_8122" x1="216" y1="0" x2="216" y2="6" gradientUnits="userSpaceOnUse">
<stop stop-color="#FD5001"/>
<stop offset="1" stop-color="#FFB901"/>
</linearGradient>
<linearGradient id="paint100_linear_5717_8122" x1="216" y1="22" x2="216" y2="28" gradientUnits="userSpaceOnUse">
<stop stop-color="#FD5001"/>
<stop offset="1" stop-color="#FFB901"/>
</linearGradient>
<linearGradient id="paint101_linear_5717_8122" x1="216" y1="44" x2="216" y2="50" gradientUnits="userSpaceOnUse">
<stop stop-color="#FD5001"/>
<stop offset="1" stop-color="#FFB901"/>
</linearGradient>
<linearGradient id="paint102_linear_5717_8122" x1="216" y1="66" x2="216" y2="72" gradientUnits="userSpaceOnUse">
<stop stop-color="#FD5001"/>
<stop offset="1" stop-color="#FFB901"/>
</linearGradient>
<linearGradient id="paint103_linear_5717_8122" x1="216" y1="88" x2="216" y2="94" gradientUnits="userSpaceOnUse">
<stop stop-color="#FD5001"/>
<stop offset="1" stop-color="#FFB901"/>
</linearGradient>
<linearGradient id="paint104_linear_5717_8122" x1="216" y1="110" x2="216" y2="116" gradientUnits="userSpaceOnUse">
<stop stop-color="#FD5001"/>
<stop offset="1" stop-color="#FFB901"/>
</linearGradient>
<linearGradient id="paint105_linear_5717_8122" x1="216" y1="132" x2="216" y2="138" gradientUnits="userSpaceOnUse">
<stop stop-color="#FD5001"/>
<stop offset="1" stop-color="#FFB901"/>
</linearGradient>
<linearGradient id="paint106_linear_5717_8122" x1="216" y1="154" x2="216" y2="160" gradientUnits="userSpaceOnUse">
<stop stop-color="#FD5001"/>
<stop offset="1" stop-color="#FFB901"/>
</linearGradient>
<linearGradient id="paint107_linear_5717_8122" x1="216" y1="176" x2="216" y2="182" gradientUnits="userSpaceOnUse">
<stop stop-color="#FD5001"/>
<stop offset="1" stop-color="#FFB901"/>
</linearGradient>
<linearGradient id="paint108_linear_5717_8122" x1="216" y1="198" x2="216" y2="204" gradientUnits="userSpaceOnUse">
<stop stop-color="#FD5001"/>
<stop offset="1" stop-color="#FFB901"/>
</linearGradient>
<linearGradient id="paint109_linear_5717_8122" x1="216" y1="220" x2="216" y2="226" gradientUnits="userSpaceOnUse">
<stop stop-color="#FD5001"/>
<stop offset="1" stop-color="#FFB901"/>
</linearGradient>
</defs>
</svg>
