<svg width="88" height="88" viewBox="0 0 88 88" fill="none" xmlns="http://www.w3.org/2000/svg">
<path d="M0 0H80C84.4183 0 88 3.58172 88 8V88H0V0Z" fill="url(#paint0_linear_5717_8393)"/>
<path d="M53.5703 40.1936C48.2875 34.9108 39.7235 34.9108 34.4407 40.1936C29.1578 45.4765 29.1578 54.0405 34.4407 59.3233C39.7235 64.6061 48.2875 64.6061 53.5703 59.3233C58.8422 54.0405 58.8422 45.4765 53.5703 40.1936ZM38.061 63.7421C35.961 62.8452 34.0907 61.489 32.6032 59.7936L29.1797 65.7218L32.6578 65.1749C32.9532 65.1202 33.2594 65.2186 33.4563 65.4702L35.5782 68.0733L38.061 63.7421ZM55.4078 59.7936C53.9094 61.489 52.05 62.8452 49.9391 63.7421L52.4328 68.0624L54.5547 65.4593C54.7516 65.2186 55.0578 65.1093 55.3532 65.164L58.8313 65.7108L55.4078 59.7936ZM49.3922 44.3718C46.4172 41.3968 41.5938 41.3968 38.6188 44.3718C35.6438 47.3468 35.6438 52.1702 38.6188 55.1452C41.5938 58.1202 46.4172 58.1202 49.3922 55.1452C52.3672 52.1702 52.3672 47.3468 49.3922 44.3718ZM44 40.4671C49.1297 40.4671 53.2969 44.6233 53.2969 49.764C53.2969 54.8936 49.1407 59.0608 44 59.0608C38.8703 59.0608 34.7032 54.9046 34.7032 49.764C34.7141 44.6233 38.8703 40.4671 44 40.4671ZM39.6688 50.3765C39.4391 49.9718 39.5703 49.4686 39.975 49.239C40.3797 49.0093 40.8828 49.1405 41.1125 49.5452L42.4469 51.853L47.0188 47.2811C47.3469 46.953 47.8828 46.953 48.2 47.2811C48.5282 47.6093 48.5282 48.1343 48.2 48.4624L42.8625 53.7999C42.4797 54.1827 41.8235 54.1061 41.55 53.6249L39.6688 50.3765ZM63.3047 28.2936L64.9563 31.7171L68.7188 32.2311C69.3641 32.3186 69.5938 33.1061 69.1453 33.5436L66.4 36.1686L67.0782 39.9093C67.1875 40.5436 66.5203 41.014 65.9625 40.7186L62.6157 38.9249L59.2688 40.7186C58.7219 41.014 58.011 40.5546 58.1641 39.8655L58.8313 36.1686L56.086 33.5436C55.6266 33.1061 55.8782 32.3186 56.5235 32.2311L60.275 31.7171L61.9266 28.2936C62.2 27.714 63.0203 27.7249 63.3047 28.2936ZM26.0735 28.2936L27.725 31.7171L31.4875 32.2311C32.1219 32.3186 32.3625 33.1061 31.9141 33.5436L29.1688 36.1686L29.8469 39.9093C29.9563 40.5436 29.2891 41.014 28.7422 40.7186L25.3953 38.9249L22.0485 40.7186C21.5016 41.014 20.8016 40.5546 20.9438 39.8655L21.611 36.1686L18.8657 33.5436C18.4063 33.1061 18.6578 32.3186 19.3032 32.2311L23.0547 31.7171L24.7063 28.2936C24.9797 27.714 25.8 27.7249 26.0735 28.2936ZM44.6891 20.364L46.3407 23.7874L50.1032 24.3015C50.7375 24.389 50.9782 25.1765 50.5297 25.614L47.7844 28.239L48.4625 31.9796C48.5719 32.614 47.9047 33.0843 47.3469 32.789L44 30.9843L40.6532 32.778C40.1063 33.0733 39.4063 32.614 39.5485 31.9249L40.2157 28.228L37.4703 25.603C37.011 25.1655 37.2625 24.378 37.9078 24.2905L41.6594 23.7765L43.311 20.353C43.5953 19.7843 44.4157 19.7952 44.6891 20.364Z" fill="white"/>
<defs>
<linearGradient id="paint0_linear_5717_8393" x1="44" y1="0" x2="44" y2="88" gradientUnits="userSpaceOnUse">
<stop stop-color="#FD5001"/>
<stop offset="1" stop-color="#FFB901"/>
</linearGradient>
</defs>
</svg>
