<svg width="80" height="80" viewBox="0 0 80 80" fill="none" xmlns="http://www.w3.org/2000/svg">
<rect width="80" height="80" rx="8" fill="#F5C244" fill-opacity="0.1"/>
<path d="M63.7075 32.2923L47.7071 16.2925C47.3171 15.9025 46.6831 15.9025 46.2931 16.2925L16.2925 46.2921C15.9025 46.6821 15.9025 47.3162 16.2925 47.7062L32.2928 63.706C32.4868 63.902 32.7429 64 32.9989 64C33.2549 64 33.5109 63.902 33.7069 63.708L63.7075 33.7083C64.0975 33.3164 64.0975 32.6843 63.7075 32.2923ZM27.7068 43.7082L23.7067 47.7081C23.5106 47.9021 23.2547 48.0002 22.9987 48.0002C22.7426 48.0002 22.4867 47.9022 22.2907 47.7081C21.9006 47.3181 21.9006 46.6841 22.2907 46.2941L26.2908 42.2941C26.6808 41.9041 27.3148 41.9041 27.7048 42.2941C28.0948 42.6842 28.0968 43.3162 27.7068 43.7082ZM44.9771 44.9782C44.2691 45.6861 43.3071 46.0262 42.237 46.0262C40.4689 46.0262 38.4029 45.1002 36.6749 43.3702C35.4108 42.1062 34.5228 40.5942 34.1769 39.1143C33.7929 37.4643 34.1089 36.0283 35.0669 35.0683C36.0249 34.1084 37.4609 33.7923 39.1129 34.1784C40.593 34.5244 42.105 35.4103 43.369 36.6763C46.1471 39.4522 46.8551 43.1002 44.9771 44.9782ZM57.7074 33.7083L53.7073 37.7083C53.5112 37.9023 53.2553 38.0003 52.9993 38.0003C52.7432 38.0003 52.4873 37.9024 52.2912 37.7083C51.9012 37.3183 51.9012 36.6843 52.2912 36.2943L56.2913 32.2943C56.6814 31.9043 57.3154 31.9043 57.7054 32.2943C58.0954 32.6843 58.0974 33.3164 57.7074 33.7083Z" fill="url(#paint0_linear_5717_8397)"/>
<defs>
<linearGradient id="paint0_linear_5717_8397" x1="40" y1="16" x2="40" y2="64" gradientUnits="userSpaceOnUse">
<stop stop-color="#FD5001"/>
<stop offset="1" stop-color="#FFB901"/>
</linearGradient>
</defs>
</svg>
