<svg width="167" height="49" viewBox="0 0 167 49" fill="none" xmlns="http://www.w3.org/2000/svg">
<g clip-path="url(#clip0_5718_9180)">
<path fill-rule="evenodd" clip-rule="evenodd" d="M16.7405 38.9811C17.9579 38.9783 19.2273 38.908 20.5314 38.7748V41.1926L16.7405 38.9807V38.9811Z" fill="#2D64F0"/>
<path fill-rule="evenodd" clip-rule="evenodd" d="M25.9647 13.0985V29.6746C24.5348 30.0413 23.1271 30.3479 21.7521 30.5923V15.5561L20.5318 14.8458V30.7934C20.0332 30.8709 19.5393 30.9383 19.0508 30.9976C18.099 31.1133 17.1851 31.1933 16.3192 31.2372V12.3879L15.1183 11.6967V31.2762C15.0103 31.2774 14.9039 31.2782 14.7983 31.2782C13.0923 31.2782 11.8112 31.1198 10.8872 30.8754V4.32355L15.1187 6.78113L25.9655 13.0985H25.9647Z" fill="#2D64F0"/>
<path fill-rule="evenodd" clip-rule="evenodd" d="M21.7518 38.6323C23.1304 38.4524 24.5418 38.2038 25.9644 37.8887V44.3616L21.7518 41.904V38.6323Z" fill="#2D64F0"/>
<mask id="mask0_5718_9180" style="mask-type:luminance" maskUnits="userSpaceOnUse" x="4" y="18" width="44" height="20">
<path d="M43.5087 19.4727C43.8183 19.7444 44.0308 20.0563 44.1243 20.4132C44.7846 22.9069 39.5477 26.573 31.8308 29.3266C30.3953 29.8391 28.8739 30.3191 27.2884 30.7548C27.1824 30.7848 27.0752 30.8133 26.9683 30.8425C26.6297 30.9339 26.2935 31.0212 25.9585 31.1056C24.4073 31.4975 22.8916 31.8216 21.4363 32.0774C20.9937 32.1554 20.5571 32.2264 20.1266 32.2914C19.6171 32.3694 19.1168 32.4372 18.6258 32.4973C17.5692 32.6252 16.5586 32.7133 15.6044 32.7612C15.1626 32.7827 14.7321 32.7961 14.3152 32.801C12.5262 32.8221 10.9827 32.6837 9.7729 32.3889C8.19348 32.0035 7.18286 31.3513 6.93978 30.4364C6.61527 29.2178 7.692 27.7234 9.7729 26.1949C9.78177 26.188 9.79145 26.1807 9.80112 26.1738V25.1521C9.79145 25.159 9.78258 25.1655 9.7729 25.1724C6.07792 27.8188 4.09659 30.6931 4.73875 33.1129C5.49621 35.9696 9.73501 37.5347 15.6044 37.5927C17.025 37.6078 18.5411 37.5335 20.1266 37.3682C20.5579 37.3235 20.9945 37.2715 21.4363 37.2135C22.8993 37.019 24.4134 36.7505 25.9585 36.4033C26.3995 36.3055 26.843 36.1999 27.2884 36.0882C27.6218 36.0054 27.9576 35.9177 28.293 35.8271C29.5092 35.4994 30.6907 35.1384 31.8308 34.7478C33.9673 34.0168 35.9551 33.1844 37.749 32.2873C44.271 29.0273 48.2284 24.9093 47.3565 21.6249C46.9526 20.1176 45.5832 18.968 43.5083 18.2122V19.4727H43.5087Z" fill="white"/>
</mask>
<g mask="url(#mask0_5718_9180)">
<path d="M48.2285 18.2122H4.09625V37.6074H48.2285V18.2122Z" fill="url(#paint0_linear_5718_9180)"/>
</g>
<path fill-rule="evenodd" clip-rule="evenodd" d="M27.2033 37.5988V44.3616L31.4348 41.9041V36.37C30.4214 36.7115 29.3818 37.0258 28.3179 37.3121C27.9463 37.4124 27.575 37.5087 27.2033 37.5992" fill="#2D64F0"/>
<path fill-rule="evenodd" clip-rule="evenodd" d="M42.3007 13.7701V4.32352L38.0687 6.7811L27.2043 13.0985V29.3448C28.6692 28.9371 30.089 28.4848 31.4358 27.9979V27.8062L41.9746 21.6797L42.3011 21.4893V16.5733L38.0691 19.0317L31.4362 22.8906V15.556L38.0691 11.6963V16.2285L42.3011 13.7701H42.3007Z" fill="#2D64F0"/>
<mask id="mask1_5718_9180" style="mask-type:luminance" maskUnits="userSpaceOnUse" x="56" y="16" width="21" height="18">
<path d="M69.9304 16.7612L66.3515 28.5729H66.2975L62.6372 16.7612H56.0477V33.3835H60.1155V20.867H60.1694L64.1557 33.3835H68.0055L72.0457 20.867H72.0997V33.3835H76.1675V16.7612H69.9304Z" fill="white"/>
</mask>
<g mask="url(#mask1_5718_9180)">
<path d="M76.1664 16.7612H56.0477V33.3835H76.1664V16.7612Z" fill="url(#paint1_linear_5718_9180)"/>
</g>
<mask id="mask2_5718_9180" style="mask-type:luminance" maskUnits="userSpaceOnUse" x="77" y="15" width="7" height="19">
<path d="M78.2278 33.3835H82.6204V20.0853H78.2278V33.3835ZM78.4855 15.7661C78.0424 16.0933 77.8214 16.5765 77.8214 17.2137C77.8214 17.8508 78.0424 18.3094 78.4855 18.6366C78.9285 18.9639 79.565 19.1281 80.3971 19.1281C81.2292 19.1281 81.8922 18.9608 82.3363 18.6243C82.7793 18.2888 83.0003 17.8179 83.0003 17.2137C83.0003 16.6094 82.7783 16.1138 82.3363 15.7784C81.8932 15.4429 81.2465 15.2746 80.3971 15.2746C79.5477 15.2746 78.9285 15.4388 78.4855 15.7661Z" fill="white"/>
</mask>
<g mask="url(#mask2_5718_9180)">
<path d="M83.0003 15.2756H77.8214V33.3834H83.0003V15.2756Z" fill="url(#paint2_linear_5718_9180)"/>
</g>
<mask id="mask3_5718_9180" style="mask-type:luminance" maskUnits="userSpaceOnUse" x="84" y="19" width="14" height="15">
<path d="M88.0835 20.313C87.17 20.6998 86.4295 21.2322 85.8602 21.9124C85.2909 22.5926 84.8703 23.357 84.5994 24.2044C84.3284 25.0528 84.193 25.9464 84.193 26.8862C84.193 27.826 84.3284 28.6826 84.5994 29.5054C84.8703 30.3282 85.295 31.0587 85.8735 31.6968C86.4519 32.3349 87.2026 32.8346 88.1243 33.1957C89.046 33.5569 90.149 33.7374 91.4322 33.7374C92.7155 33.7374 93.7054 33.5774 94.564 33.2593C95.4226 32.9403 96.11 32.5042 96.6243 31.9502C97.1397 31.3962 97.487 30.7714 97.6683 30.0738C97.8485 29.3772 97.8852 28.659 97.7772 27.9203L93.737 27.7439C93.8093 28.1973 93.791 28.6549 93.683 29.1166C93.5741 29.5783 93.348 29.9599 93.0047 30.2626C92.6615 30.5652 92.1553 30.716 91.4862 30.716C90.8171 30.716 90.2977 30.557 89.873 30.2379C89.4483 29.9189 89.1315 29.4572 88.9238 28.8529C88.716 28.2486 88.6121 27.5274 88.6121 26.6872C88.6121 26.0326 88.6712 25.4704 88.7883 24.9995C88.9054 24.5296 89.0775 24.1398 89.3036 23.8289C89.5297 23.518 89.8098 23.2872 90.1439 23.1364C90.4779 22.9856 90.8619 22.9097 91.2958 22.9097C91.7836 22.9097 92.1991 23.0061 92.5434 23.199C92.8866 23.3918 93.1443 23.6863 93.3164 24.0802C93.4875 24.4752 93.5557 24.9749 93.5201 25.5792L97.3159 25.3021C97.4788 24.3285 97.3739 23.4216 97.0042 22.5824C96.6335 21.7432 95.9827 21.0589 95.0518 20.5295C94.121 20.0011 92.8968 19.7364 91.3782 19.7364C90.095 19.7364 88.9961 19.9293 88.0835 20.3161" fill="white"/>
</mask>
<g mask="url(#mask3_5718_9180)">
<path d="M97.8863 19.7332H84.1931V33.7363H97.8863V19.7332Z" fill="url(#paint3_linear_5718_9180)"/>
</g>
<mask id="mask4_5718_9180" style="mask-type:luminance" maskUnits="userSpaceOnUse" x="99" y="19" width="10" height="15">
<path d="M105.03 20.2997C104.55 20.6444 104.153 21.223 103.837 22.0376C103.52 22.8522 103.308 23.9643 103.2 25.375H102.983V20.0863H99.1868V33.3845H103.552V28.1204C103.552 27.2812 103.656 26.5671 103.864 25.9793C104.071 25.3914 104.374 24.9462 104.772 24.6445C105.169 24.3419 105.657 24.1911 106.237 24.1911C106.58 24.1911 106.941 24.2454 107.321 24.3552C107.701 24.465 108.089 24.6281 108.487 24.8467L108.704 20.313C108.361 20.1283 108.013 19.994 107.66 19.9098C107.308 19.8257 106.969 19.7836 106.644 19.7836C106.047 19.7836 105.509 19.956 105.031 20.2997" fill="white"/>
</mask>
<g mask="url(#mask4_5718_9180)">
<path d="M108.704 19.7836H99.1868V33.3835H108.704V19.7836Z" fill="url(#paint4_linear_5718_9180)"/>
</g>
<mask id="mask5_5718_9180" style="mask-type:luminance" maskUnits="userSpaceOnUse" x="109" y="19" width="15" height="15">
<path d="M114.818 29.6819C114.338 28.9771 114.1 27.986 114.1 26.7097C114.1 25.9033 114.199 25.216 114.398 24.6445C114.597 24.0741 114.886 23.6412 115.266 23.3477C115.646 23.0543 116.106 22.9076 116.649 22.9076C117.228 22.9076 117.721 23.0677 118.127 23.3857C118.533 23.7048 118.845 24.1623 119.062 24.7584C119.279 25.3545 119.387 26.0891 119.387 26.9621C119.387 27.7511 119.287 28.4313 119.088 29.0017C118.889 29.5731 118.601 30.0051 118.221 30.2985C117.841 30.5929 117.371 30.7396 116.811 30.7396C115.962 30.7396 115.297 30.3867 114.818 29.6819ZM113.137 20.4772C112.061 20.9727 111.212 21.736 110.588 22.7691C109.965 23.8012 109.653 25.1329 109.653 26.761C109.653 28.3892 109.952 29.6193 110.548 30.6524C111.144 31.6855 111.975 32.457 113.042 32.969C114.108 33.4809 115.328 33.7374 116.702 33.7374C118.076 33.7374 119.274 33.4943 120.349 33.007C121.425 32.5207 122.274 31.7604 122.898 30.7273C123.522 29.6942 123.833 28.3646 123.833 26.7354C123.833 25.1062 123.539 23.8515 122.952 22.8194C122.365 21.7863 121.543 21.0147 120.485 20.5028C119.428 19.9909 118.194 19.7344 116.784 19.7344C115.373 19.7344 114.212 19.9827 113.137 20.4772Z" fill="white"/>
</mask>
<g mask="url(#mask5_5718_9180)">
<path d="M123.833 19.7334H109.652V33.7365H123.833V19.7334Z" fill="url(#paint5_linear_5718_9180)"/>
</g>
<mask id="mask6_5718_9180" style="mask-type:luminance" maskUnits="userSpaceOnUse" x="125" y="16" width="13" height="18">
<path d="M129.907 16.7612H125.514V33.3835H129.907V27.4649H136.821V24.1408H129.907V20.1612H137.743V16.7612H129.907Z" fill="white"/>
</mask>
<g mask="url(#mask6_5718_9180)">
<path d="M137.743 16.7612H125.514V33.3835H137.743V16.7612Z" fill="url(#paint6_linear_5718_9180)"/>
</g>
<mask id="mask7_5718_9180" style="mask-type:luminance" maskUnits="userSpaceOnUse" x="138" y="15" width="7" height="19">
<path d="M139.234 33.3835H143.626V20.0853H139.234V33.3835ZM139.491 15.7661C139.048 16.0933 138.827 16.5765 138.827 17.2137C138.827 17.8508 139.048 18.3094 139.491 18.6366C139.934 18.9639 140.571 19.1281 141.403 19.1281C142.235 19.1281 142.898 18.9608 143.341 18.6243C143.784 18.2888 144.005 17.8179 144.005 17.2137C144.005 16.6094 143.783 16.1138 143.341 15.7784C142.898 15.4429 142.252 15.2746 141.403 15.2746C140.554 15.2746 139.934 15.4388 139.491 15.7661Z" fill="white"/>
</mask>
<g mask="url(#mask7_5718_9180)">
<path d="M144.006 15.2756H138.827V33.3834H144.006V15.2756Z" fill="url(#paint7_linear_5718_9180)"/>
</g>
<mask id="mask8_5718_9180" style="mask-type:luminance" maskUnits="userSpaceOnUse" x="145" y="19" width="14" height="15">
<path d="M151.761 20.3633C151.092 20.7829 150.576 21.4169 150.215 22.2643C149.853 23.1128 149.618 24.1911 149.51 25.5012H149.293V20.0863H145.579V33.3845H149.971V28.6744C149.971 27.3479 150.088 26.2901 150.324 25.5012C150.558 24.7122 150.884 24.1408 151.299 23.7889C151.715 23.436 152.195 23.2605 152.736 23.2605C153.387 23.2605 153.862 23.4873 154.16 23.9407C154.459 24.3942 154.607 25.0744 154.607 25.9803V33.3845H159V25.4509C159 23.554 158.607 22.1269 157.821 21.1697C157.034 20.2125 155.864 19.7344 154.309 19.7344C153.278 19.7344 152.429 19.9447 151.76 20.3643" fill="white"/>
</mask>
<g mask="url(#mask8_5718_9180)">
<path d="M159 19.7334H145.579V33.3835H159V19.7334Z" fill="url(#paint8_linear_5718_9180)"/>
</g>
</g>
<defs>
<linearGradient id="paint0_linear_5718_9180" x1="4.12062" y1="28.0873" x2="46.9782" y2="28.0873" gradientUnits="userSpaceOnUse">
<stop stop-color="#FC4600"/>
<stop offset="1" stop-color="#FFB900"/>
</linearGradient>
<linearGradient id="paint1_linear_5718_9180" x1="54.9217" y1="25.8407" x2="157.874" y2="25.8407" gradientUnits="userSpaceOnUse">
<stop stop-color="#FC4600"/>
<stop offset="1" stop-color="#FFB900"/>
</linearGradient>
<linearGradient id="paint2_linear_5718_9180" x1="54.9216" y1="24.8035" x2="157.874" y2="24.8035" gradientUnits="userSpaceOnUse">
<stop stop-color="#FC4600"/>
<stop offset="1" stop-color="#FFB900"/>
</linearGradient>
<linearGradient id="paint3_linear_5718_9180" x1="54.9218" y1="26.8776" x2="157.874" y2="26.8776" gradientUnits="userSpaceOnUse">
<stop stop-color="#FC4600"/>
<stop offset="1" stop-color="#FFB900"/>
</linearGradient>
<linearGradient id="paint4_linear_5718_9180" x1="54.9217" y1="26.8777" x2="157.874" y2="26.8777" gradientUnits="userSpaceOnUse">
<stop stop-color="#FC4600"/>
<stop offset="1" stop-color="#FFB900"/>
</linearGradient>
<linearGradient id="paint5_linear_5718_9180" x1="54.9216" y1="26.8778" x2="157.874" y2="26.8778" gradientUnits="userSpaceOnUse">
<stop stop-color="#FC4600"/>
<stop offset="1" stop-color="#FFB900"/>
</linearGradient>
<linearGradient id="paint6_linear_5718_9180" x1="54.9217" y1="25.8407" x2="157.874" y2="25.8407" gradientUnits="userSpaceOnUse">
<stop stop-color="#FC4600"/>
<stop offset="1" stop-color="#FFB900"/>
</linearGradient>
<linearGradient id="paint7_linear_5718_9180" x1="54.9217" y1="24.8035" x2="157.874" y2="24.8035" gradientUnits="userSpaceOnUse">
<stop stop-color="#FC4600"/>
<stop offset="1" stop-color="#FFB900"/>
</linearGradient>
<linearGradient id="paint8_linear_5718_9180" x1="54.9215" y1="26.8778" x2="157.874" y2="26.8778" gradientUnits="userSpaceOnUse">
<stop stop-color="#FC4600"/>
<stop offset="1" stop-color="#FFB900"/>
</linearGradient>
<clipPath id="clip0_5718_9180">
<rect width="167" height="49" fill="white"/>
</clipPath>
</defs>
</svg>
