<svg width="80" height="80" viewBox="0 0 80 80" fill="none" xmlns="http://www.w3.org/2000/svg">
<rect width="80" height="80" rx="8" fill="#F5C244" fill-opacity="0.1"/>
<path d="M31.4286 33.1429C34.2689 33.1429 36.5714 30.8404 36.5714 28C36.5714 25.1597 34.2689 22.8572 31.4286 22.8572C28.5882 22.8572 26.2857 25.1597 26.2857 28C26.2857 30.8404 28.5882 33.1429 31.4286 33.1429Z" fill="url(#paint0_linear_5717_8417)"/>
<path d="M62.2857 16H58.8571C57.9096 16 57.1429 16.7676 57.1429 17.7143C57.1429 18.4516 57.6133 19.0673 58.2666 19.3093L53.7143 23.8616L51.4978 21.6451C50.8281 20.9754 49.7433 20.9754 49.0737 21.6451L45.5278 25.191C43.1263 19.7849 37.7149 16 31.4286 16C30.4819 16 29.7143 16.7676 29.7143 17.7143C29.7143 18.661 30.4819 19.4286 31.4286 19.4286C38.0455 19.4286 43.4286 24.8117 43.4286 31.4286C43.4286 38.0455 38.0455 43.4286 31.4286 43.4286C24.8117 43.4286 19.4286 38.0455 19.4286 31.4286C19.4286 29.1701 20.0689 26.9794 21.2472 25.0882C21.4691 25.7778 22.0938 26.2857 22.8571 26.2857C23.8039 26.2857 24.5714 25.5181 24.5714 24.5714V21.1429C24.5714 20.1961 23.8039 19.4286 22.8571 19.4286H19.4286C18.4819 19.4286 17.7143 20.1961 17.7143 21.1429C17.7143 21.8368 18.1312 22.4276 18.7243 22.6974C16.9647 25.2553 16 28.2904 16 31.4286C16 39.9355 22.9216 46.8571 31.4286 46.8571C39.9355 46.8571 46.8571 39.9355 46.8571 31.4286C46.8571 30.5763 46.7698 29.7459 46.6362 28.9308L50.2857 25.2812L52.5022 27.4978C53.1719 28.1674 54.2567 28.1674 54.9263 27.4978L60.6906 21.7335C60.9325 22.3865 61.5479 22.8571 62.2857 22.8571C63.2333 22.8571 64 22.0896 64 21.1429V17.7143C64 16.7676 63.2333 16 62.2857 16Z" fill="url(#paint1_linear_5717_8417)"/>
<path d="M34.8572 33.1428H31.4286H28C25.517 33.1428 23.4401 34.9115 22.9614 37.2551C24.8184 39.9453 27.9192 41.7143 31.4286 41.7143C34.9379 41.7143 38.0388 39.9453 39.8958 37.2551C39.4171 34.9115 37.3402 33.1428 34.8572 33.1428Z" fill="url(#paint2_linear_5717_8417)"/>
<path d="M64 63.9999H57.1429V33.1428C57.1429 32.196 57.9104 31.4285 58.8571 31.4285H62.2857C63.2325 31.4285 64 32.196 64 33.1428V63.9999Z" fill="url(#paint3_linear_5717_8417)"/>
<path d="M55.4286 63.9999H48.5714V39.9999C48.5714 39.0532 49.339 38.2856 50.2857 38.2856H53.7143C54.6611 38.2856 55.4286 39.0532 55.4286 39.9999V63.9999Z" fill="url(#paint4_linear_5717_8417)"/>
<path d="M46.8571 64H40V46.8571C40 45.9103 40.7675 45.1428 41.7143 45.1428H45.1429C46.0896 45.1428 46.8571 45.9103 46.8571 46.8571V64Z" fill="url(#paint5_linear_5717_8417)"/>
<path d="M38.2857 64H31.4286V53.7143C31.4286 52.7675 32.1961 52 33.1428 52H36.5714C37.5182 52 38.2857 52.7675 38.2857 53.7143V64Z" fill="url(#paint6_linear_5717_8417)"/>
<path d="M29.7143 64H22.8571V58.8571C22.8571 57.9103 23.6247 57.1428 24.5714 57.1428H28C28.9468 57.1428 29.7143 57.9103 29.7143 58.8571V64Z" fill="url(#paint7_linear_5717_8417)"/>
<defs>
<linearGradient id="paint0_linear_5717_8417" x1="31.4286" y1="22.8572" x2="31.4286" y2="33.1429" gradientUnits="userSpaceOnUse">
<stop stop-color="#FD5001"/>
<stop offset="1" stop-color="#FFB901"/>
</linearGradient>
<linearGradient id="paint1_linear_5717_8417" x1="40" y1="16" x2="40" y2="46.8571" gradientUnits="userSpaceOnUse">
<stop stop-color="#FD5001"/>
<stop offset="1" stop-color="#FFB901"/>
</linearGradient>
<linearGradient id="paint2_linear_5717_8417" x1="31.4286" y1="33.1428" x2="31.4286" y2="41.7143" gradientUnits="userSpaceOnUse">
<stop stop-color="#FD5001"/>
<stop offset="1" stop-color="#FFB901"/>
</linearGradient>
<linearGradient id="paint3_linear_5717_8417" x1="60.5714" y1="31.4285" x2="60.5714" y2="63.9999" gradientUnits="userSpaceOnUse">
<stop stop-color="#FD5001"/>
<stop offset="1" stop-color="#FFB901"/>
</linearGradient>
<linearGradient id="paint4_linear_5717_8417" x1="52" y1="38.2856" x2="52" y2="63.9999" gradientUnits="userSpaceOnUse">
<stop stop-color="#FD5001"/>
<stop offset="1" stop-color="#FFB901"/>
</linearGradient>
<linearGradient id="paint5_linear_5717_8417" x1="43.4286" y1="45.1428" x2="43.4286" y2="64" gradientUnits="userSpaceOnUse">
<stop stop-color="#FD5001"/>
<stop offset="1" stop-color="#FFB901"/>
</linearGradient>
<linearGradient id="paint6_linear_5717_8417" x1="34.8571" y1="52" x2="34.8571" y2="64" gradientUnits="userSpaceOnUse">
<stop stop-color="#FD5001"/>
<stop offset="1" stop-color="#FFB901"/>
</linearGradient>
<linearGradient id="paint7_linear_5717_8417" x1="26.2857" y1="57.1428" x2="26.2857" y2="64" gradientUnits="userSpaceOnUse">
<stop stop-color="#FD5001"/>
<stop offset="1" stop-color="#FFB901"/>
</linearGradient>
</defs>
</svg>
