<svg width="105" height="104" viewBox="0 0 105 104" fill="none" xmlns="http://www.w3.org/2000/svg">
<rect x="0.333282" width="104" height="104" rx="8" fill="#F5C244" fill-opacity="0.1"/>
<g clip-path="url(#clip0_5717_8340)">
<path d="M83.4433 54.56C82.4533 53.03 80.7733 52.12 78.9433 52.12C77.9133 52.12 76.9033 52.42 76.0333 52.98C73.7733 54.45 72.9933 57.34 74.0933 59.72L67.9233 63.91C66.6333 62.09 64.8833 60.61 62.8333 59.67L67.9833 45.03C69.0633 45.34 70.2033 45.5 71.3733 45.5C74.2133 45.5 76.8533 44.57 78.9733 42.98C79.0233 42.94 79.0633 42.91 79.1033 42.87C82.1433 40.54 84.1133 36.88 84.1133 32.74C84.1133 25.72 78.3933 20 71.3733 20C66.0833 20 61.5333 23.23 59.6033 27.83L56.1533 26.39C56.3633 25.25 56.1933 24.08 55.6433 23.03C55.0033 21.76 53.8933 20.83 52.5433 20.39C52.0133 20.21 51.4533 20.13 50.9033 20.13C50.0733 20.13 49.2333 20.33 48.4733 20.71C47.2033 21.36 46.2733 22.46 45.8333 23.82C45.3933 25.18 45.5133 26.61 46.1633 27.88C46.8133 29.15 47.9133 30.09 49.2733 30.53C49.8033 30.7 50.3533 30.79 50.9033 30.79C51.7433 30.79 52.5733 30.58 53.3333 30.2C54.3433 29.68 55.1433 28.87 55.6533 27.88L59.0933 29.31C58.7733 30.4 58.6133 31.55 58.6133 32.74C58.6133 34.24 58.8733 35.67 59.3433 37L47.4833 42.17C45.3833 38.02 41.0733 35.17 36.1133 35.17C34.4833 35.17 32.9033 35.48 31.4633 36.05L28.5433 30.06C29.5133 29.48 30.2633 28.59 30.7033 27.51C31.2533 26.18 31.2433 24.72 30.6933 23.39C29.8733 21.38 27.9133 20.08 25.7333 20.08C25.0233 20.08 24.3233 20.22 23.6633 20.5C20.9133 21.63 19.6133 24.8 20.7633 27.54C21.3133 28.87 22.3533 29.91 23.6833 30.45C24.3333 30.72 25.0333 30.86 25.7333 30.86C26.1933 30.86 26.6533 30.8 27.1033 30.68L30.0433 36.7C26.0733 38.87 23.3633 43.08 23.3633 47.9C23.3633 52.02 25.3333 55.7 28.3833 58.03C28.4233 58.07 28.4733 58.11 28.5233 58.14C30.6433 59.72 33.2733 60.65 36.1133 60.65C38.9433 60.65 41.5733 59.72 43.6933 58.14C43.7533 58.11 43.8033 58.07 43.8533 58.02C44.0233 57.89 44.1833 57.76 44.3333 57.62L48.2833 62.47C46.1133 64.76 44.7733 67.85 44.7733 71.25C44.7733 72.06 44.8533 72.85 45.0033 73.63L40.1733 74.69C39.4133 72.6 37.4133 71.15 35.1333 71.15C34.7833 71.15 34.4333 71.18 34.0833 71.25C32.6833 71.53 31.4733 72.34 30.6733 73.54C29.8833 74.73 29.5933 76.16 29.8733 77.55C30.3833 80.06 32.5833 81.87 35.1333 81.87C35.4933 81.87 35.8333 81.83 36.1833 81.76C37.5833 81.48 38.8033 80.67 39.5933 79.48C40.2433 78.51 40.5533 77.37 40.4833 76.22L45.3933 75.15C46.1933 77.65 47.7533 79.81 49.7833 81.36C49.7833 81.36 49.7833 81.36 49.7933 81.37C49.8533 81.41 49.9133 81.46 49.9733 81.5C52.0933 83.07 54.7033 83.99 57.5233 83.99C60.3533 83.99 62.9833 83.06 65.1033 81.48C65.1633 81.45 65.2133 81.41 65.2633 81.36C68.3033 79.03 70.2633 75.37 70.2633 71.24C70.2633 69.07 69.7233 67.02 68.7533 65.23L74.9533 61.02C75.9633 62.16 77.4033 62.82 78.9633 62.82C79.9933 62.82 81.0033 62.51 81.8733 61.95C83.0733 61.18 83.8933 59.97 84.1933 58.57C84.5033 57.18 84.2333 55.75 83.4433 54.56ZM61.0333 74.13C62.0233 73.2 62.6333 71.88 62.6333 70.42C62.6333 67.61 60.3333 65.31 57.5233 65.31C54.7033 65.31 52.4133 67.61 52.4133 70.42C52.4133 71.88 53.0233 73.19 54.0133 74.13C51.5433 74.96 50.1033 76.67 49.6933 79.2C48.2933 77.83 47.2533 76.09 46.7333 74.15C46.7333 74.12 46.7233 74.09 46.7233 74.07C46.7133 74.02 46.7033 73.98 46.6833 73.94C46.6733 73.93 46.6733 73.92 46.6733 73.91C46.4633 73.06 46.3533 72.17 46.3533 71.25C46.3533 65.09 51.3633 60.07 57.5333 60.07C58.9633 60.07 60.3333 60.34 61.5933 60.83L61.6033 60.84H61.6133C63.8933 61.74 65.8033 63.37 67.0733 65.43C67.0833 65.44 67.0933 65.45 67.0933 65.46C68.1133 67.14 68.7033 69.13 68.7033 71.25C68.7033 74.36 67.4233 77.17 65.3633 79.21C64.9633 76.67 63.5033 74.96 61.0333 74.13ZM31.4333 37.76C32.8633 37.1 34.4433 36.73 36.1233 36.73C40.7233 36.73 44.6733 39.52 46.3933 43.49V43.51C46.3933 43.52 46.4033 43.52 46.4033 43.53C46.9833 44.88 47.3033 46.36 47.3033 47.91C47.3033 51.02 46.0233 53.83 43.9633 55.87C43.5633 53.33 42.1133 51.63 39.6333 50.79C40.6233 49.87 41.2333 48.55 41.2333 47.09C41.2333 44.27 38.9333 41.98 36.1233 41.98C33.3033 41.98 31.0133 44.27 31.0133 47.09C31.0133 48.55 31.6233 49.86 32.6133 50.8C30.1433 51.63 28.7033 53.33 28.2933 55.86C26.2333 53.84 24.9533 51.03 24.9533 47.91C24.9433 43.42 27.6133 39.54 31.4333 37.76ZM71.3733 21.57C77.5233 21.57 82.5433 26.58 82.5433 32.75C82.5433 35.85 81.2633 38.67 79.2133 40.7C78.8033 38.16 77.3533 36.47 74.8833 35.64C75.8733 34.71 76.4833 33.39 76.4833 31.93C76.4833 29.11 74.1833 26.82 71.3733 26.82C68.5533 26.82 66.2633 29.11 66.2633 31.93C66.2633 33.39 66.8733 34.7 67.8633 35.64C65.3933 36.47 63.9533 38.17 63.5433 40.7C62.5033 39.69 61.6633 38.47 61.0833 37.11V37.1C60.5233 35.76 60.2033 34.3 60.2033 32.75C60.2033 31.5 60.4133 30.3 60.7833 29.18C60.8033 29.13 60.8133 29.08 60.8333 29.03C62.3633 24.69 66.5133 21.57 71.3733 21.57ZM45.4833 56.54C47.5833 54.27 48.8633 51.24 48.8633 47.91C48.8633 46.4 48.6033 44.96 48.1233 43.62C48.1233 43.62 48.1233 43.62 48.1233 43.61L59.9733 38.44C60.8433 40.18 62.1133 41.7 63.6533 42.86C63.6833 42.9 63.7333 42.93 63.7733 42.97C64.6133 43.59 65.5233 44.12 66.5033 44.52L61.3633 59.1C60.1433 58.71 58.8533 58.51 57.5233 58.51C54.4633 58.51 51.6533 59.6 49.4433 61.4L45.4833 56.54Z" fill="url(#paint0_linear_5717_8340)"/>
</g>
<defs>
<linearGradient id="paint0_linear_5717_8340" x1="52.3316" y1="20" x2="52.3316" y2="83.99" gradientUnits="userSpaceOnUse">
<stop stop-color="#FD5001"/>
<stop offset="1" stop-color="#FFB901"/>
</linearGradient>
<clipPath id="clip0_5717_8340">
<rect width="64" height="64" fill="white" transform="translate(20.3333 20)"/>
</clipPath>
</defs>
</svg>
