<svg width="104" height="104" viewBox="0 0 104 104" fill="none" xmlns="http://www.w3.org/2000/svg">
<rect width="104" height="104" rx="8" fill="#F5C244" fill-opacity="0.1"/>
<g clip-path="url(#clip0_5717_8326)">
<path d="M68.5869 21.4835L65.1229 23.4835C64.2859 23.9668 63.9992 25.037 64.4824 25.874C64.9657 26.711 66.0359 26.9978 66.8729 26.5145L70.3369 24.5145C71.1739 24.0313 71.4607 22.961 70.9774 22.124C70.4942 21.287 69.4239 21.0003 68.5869 21.4835Z" fill="url(#paint0_linear_5717_8326)"/>
<path d="M66.874 35.4856C66.037 35.0024 64.9667 35.2891 64.4835 36.1261C64.0002 36.9631 64.287 38.0334 65.124 38.5166L68.588 40.5166C69.425 40.9999 70.4952 40.7131 70.9785 39.8761C71.4617 39.0391 71.175 37.9689 70.338 37.4856L66.874 35.4856Z" fill="url(#paint1_linear_5717_8326)"/>
<path d="M35.411 21.4854C34.574 21.0022 33.5037 21.2889 33.0205 22.1259C32.5373 22.9629 32.824 24.0332 33.661 24.5164L37.125 26.5164C37.962 26.9997 39.0323 26.7129 39.5155 25.8759C39.9987 25.0389 39.712 23.9687 38.875 23.4854L35.411 21.4854Z" fill="url(#paint2_linear_5717_8326)"/>
<path d="M37.1251 35.4835L33.6611 37.4835C32.8241 37.9668 32.5373 39.037 33.0206 39.874C33.5038 40.711 34.5741 40.9978 35.4111 40.5145L38.8751 38.5145C39.7121 38.0313 39.9988 36.961 39.5156 36.124C39.0323 35.287 37.9621 35.0003 37.1251 35.4835Z" fill="url(#paint3_linear_5717_8326)"/>
<path d="M47.5 42.286V43.25C47.5 44.4435 47.9741 45.5881 48.818 46.432C49.6619 47.2759 50.8065 47.75 52 47.75C53.1935 47.75 54.3381 47.2759 55.182 46.432C56.0259 45.5881 56.5 44.4435 56.5 43.25V42.286H47.5Z" fill="url(#paint4_linear_5717_8326)"/>
<path d="M52 20.25C49.8179 20.2481 47.6953 20.9606 45.9563 22.2786C44.2173 23.5966 42.9576 25.4477 42.3696 27.5491C41.7817 29.6504 41.8979 31.8865 42.7004 33.9156C43.503 35.9447 44.9478 37.6553 46.814 38.786H50.25V32C50.25 31.5359 50.4344 31.0908 50.7626 30.7626C51.0908 30.4344 51.5359 30.25 52 30.25C52.4641 30.25 52.9093 30.4344 53.2374 30.7626C53.5656 31.0908 53.75 31.5359 53.75 32V38.786H57.186C59.0522 37.6553 60.497 35.9447 61.2995 33.9156C62.1021 31.8865 62.2183 29.6504 61.6304 27.5491C61.0424 25.4477 59.7828 23.5966 58.0437 22.2786C56.3047 20.9606 54.1821 20.2481 52 20.25Z" fill="url(#paint5_linear_5717_8326)"/>
<path d="M23.2335 63.4329L20.759 65.9074C20.0757 66.5907 20.0757 67.6986 20.759 68.3819L35.606 83.2289C36.2893 83.9122 37.3972 83.9122 38.0805 83.2289L40.555 80.7544C41.2383 80.0711 41.2383 78.9632 40.555 78.2799L25.708 63.4329C25.0247 62.7496 23.9168 62.7496 23.2335 63.4329Z" fill="url(#paint6_linear_5717_8326)"/>
<path d="M77.549 50.775L68.762 61.248C68.1289 62.0036 67.3377 62.6112 66.4443 63.0278C65.5508 63.4444 64.5768 63.6598 63.591 63.659H51.75C51.2859 63.659 50.8407 63.4746 50.5126 63.1464C50.1844 62.8182 50 62.3731 50 61.909C50 61.4448 50.1844 60.9997 50.5126 60.6715C50.8407 60.3433 51.2859 60.159 51.75 60.159H61.971C62.8993 60.159 63.7895 59.7902 64.4459 59.1338C65.1022 58.4774 65.471 57.5872 65.471 56.659C65.471 55.7307 65.1022 54.8405 64.4459 54.1841C63.7895 53.5277 62.8993 53.159 61.971 53.159H42.627C41.0833 53.1544 39.554 53.4563 38.1277 54.0469C36.7014 54.6376 35.4065 55.5053 34.318 56.6L29.071 61.848L42.153 74.929L44.764 72.317C44.9726 72.1076 45.2206 71.9417 45.4937 71.8288C45.7667 71.7158 46.0595 71.6581 46.355 71.659H65.305C66.7804 71.6633 68.2372 71.3308 69.5646 70.6866C70.8919 70.0424 72.0546 69.1037 72.964 67.942L83 55.2C83.5704 54.4758 83.8331 53.5564 83.7314 52.6402C83.6297 51.7241 83.1718 50.8846 82.4566 50.3032C81.7413 49.7217 80.8261 49.4448 79.9085 49.5324C78.9908 49.6199 78.1444 50.0648 77.552 50.771L77.549 50.775Z" fill="url(#paint7_linear_5717_8326)"/>
</g>
<defs>
<linearGradient id="paint0_linear_5717_8326" x1="66.8549" y1="22.4835" x2="68.6049" y2="25.5145" gradientUnits="userSpaceOnUse">
<stop stop-color="#FD5001"/>
<stop offset="1" stop-color="#FFB901"/>
</linearGradient>
<linearGradient id="paint1_linear_5717_8326" x1="64.4835" y1="36.1261" x2="70.9785" y2="39.8761" gradientUnits="userSpaceOnUse">
<stop stop-color="#FD5001"/>
<stop offset="1" stop-color="#FFB901"/>
</linearGradient>
<linearGradient id="paint2_linear_5717_8326" x1="33.0205" y1="22.1259" x2="39.5155" y2="25.8759" gradientUnits="userSpaceOnUse">
<stop stop-color="#FD5001"/>
<stop offset="1" stop-color="#FFB901"/>
</linearGradient>
<linearGradient id="paint3_linear_5717_8326" x1="35.3931" y1="36.4835" x2="37.1431" y2="39.5145" gradientUnits="userSpaceOnUse">
<stop stop-color="#FD5001"/>
<stop offset="1" stop-color="#FFB901"/>
</linearGradient>
<linearGradient id="paint4_linear_5717_8326" x1="52" y1="42.286" x2="52" y2="47.75" gradientUnits="userSpaceOnUse">
<stop stop-color="#FD5001"/>
<stop offset="1" stop-color="#FFB901"/>
</linearGradient>
<linearGradient id="paint5_linear_5717_8326" x1="52" y1="20.25" x2="52" y2="38.786" gradientUnits="userSpaceOnUse">
<stop stop-color="#FD5001"/>
<stop offset="1" stop-color="#FFB901"/>
</linearGradient>
<linearGradient id="paint6_linear_5717_8326" x1="21.9963" y1="64.6702" x2="39.3177" y2="81.9917" gradientUnits="userSpaceOnUse">
<stop stop-color="#FD5001"/>
<stop offset="1" stop-color="#FFB901"/>
</linearGradient>
<linearGradient id="paint7_linear_5717_8326" x1="56.4119" y1="49.5165" x2="56.4119" y2="74.929" gradientUnits="userSpaceOnUse">
<stop stop-color="#FD5001"/>
<stop offset="1" stop-color="#FFB901"/>
</linearGradient>
<clipPath id="clip0_5717_8326">
<rect width="64" height="64" fill="white" transform="translate(20 20)"/>
</clipPath>
</defs>
</svg>
