<svg width="105" height="104" viewBox="0 0 105 104" fill="none" xmlns="http://www.w3.org/2000/svg">
<rect x="0.666687" width="104" height="104" rx="8" fill="#F5C244" fill-opacity="0.1"/>
<g clip-path="url(#clip0_5717_8316)">
<path d="M46.7467 45.4222C52.6377 45.4222 57.4133 40.6466 57.4133 34.7555C57.4133 28.8645 52.6377 24.0889 46.7467 24.0889C40.8556 24.0889 36.08 28.8645 36.08 34.7555C36.08 40.6466 40.8556 45.4222 46.7467 45.4222Z" fill="url(#paint0_linear_5717_8316)"/>
<path d="M49.8933 76.5689C49.3058 75.9879 48.9225 75.232 48.8007 74.4148C48.6789 73.5975 48.8252 72.7627 49.2178 72.0356L50.16 70.2578L48.2222 69.6711C47.432 69.4238 46.7441 68.9255 46.2628 68.2517C45.7816 67.5779 45.5332 66.7655 45.5556 65.9378V62.2934C45.5541 61.4693 45.8177 60.6666 46.3075 60.0039C46.7973 59.3413 47.4873 58.8537 48.2756 58.6134L50.2133 58.0267L49.2889 56.2489C48.9078 55.5317 48.7629 54.7126 48.8746 53.9082C48.9863 53.1038 49.349 52.3551 49.9111 51.7689C48.5434 51.5896 47.166 51.4946 45.7867 51.4845C41.7126 51.3886 37.6675 52.1929 33.94 53.84C30.2125 55.4871 26.8943 57.9365 24.2222 61.0134V74.7911C24.2222 75.2626 24.4095 75.7148 24.7429 76.0482C25.0763 76.3816 25.5285 76.5689 26 76.5689H49.8933Z" fill="url(#paint1_linear_5717_8316)"/>
<path d="M80.5778 61.7067L77.0222 60.64C76.7759 59.762 76.4299 58.915 75.9911 58.1155L77.7689 54.8089C77.8376 54.6861 77.8627 54.5438 77.8401 54.4049C77.8175 54.2661 77.7486 54.139 77.6445 54.0444L75.0667 51.4489C74.9674 51.3523 74.8408 51.2885 74.7041 51.2662C74.5673 51.244 74.427 51.2643 74.3022 51.3244L71.0133 53.1022C70.2038 52.6624 69.3521 52.3051 68.4711 52.0355L67.3867 48.48C67.339 48.3489 67.2518 48.2358 67.1372 48.1562C67.0226 48.0766 66.8862 48.0345 66.7467 48.0355H63.0489C62.9103 48.0394 62.7762 48.0858 62.6649 48.1685C62.5536 48.2512 62.4704 48.3662 62.4267 48.4978L61.36 52.0533C60.462 52.3146 59.597 52.6785 58.7822 53.1378L55.5645 51.36C55.4394 51.2935 55.2965 51.268 55.1561 51.2872C55.0158 51.3063 54.885 51.3691 54.7822 51.4667L52.1689 54.0267C52.066 54.1258 51.9982 54.2558 51.9758 54.3969C51.9533 54.5381 51.9774 54.6827 52.0445 54.8089L53.8222 58.0444C53.346 58.8474 52.9585 59.6998 52.6667 60.5867L49.1111 61.6711C48.9766 61.71 48.8586 61.7919 48.7751 61.9043C48.6916 62.0167 48.6473 62.1533 48.6489 62.2933V65.9378C48.6473 66.0778 48.6916 66.2144 48.7751 66.3268C48.8586 66.4392 48.9766 66.5211 49.1111 66.56L52.6667 67.6444C52.9332 68.5151 53.2907 69.3553 53.7334 70.1511L51.9556 73.5289C51.8885 73.6551 51.8644 73.7997 51.8869 73.9408C51.9093 74.0819 51.9771 74.2119 52.08 74.3111L54.7289 76.8889C54.8316 76.9864 54.9624 77.0492 55.1028 77.0684C55.2432 77.0875 55.386 77.062 55.5111 76.9955L58.8356 75.2178C59.6267 75.6433 60.4611 75.983 61.3245 76.2311L62.3911 79.8755C62.4359 80.01 62.5217 80.1269 62.6366 80.2099C62.7514 80.2928 62.8895 80.3376 63.0311 80.3378H66.6756C66.8142 80.3339 66.9483 80.2875 67.0596 80.2048C67.1709 80.1221 67.2541 80.0071 67.2978 79.8755L68.3645 76.2311C69.2175 75.9861 70.0405 75.6462 70.8178 75.2178L74.1778 76.9955C74.3029 77.062 74.4457 77.0875 74.5861 77.0684C74.7265 77.0492 74.8573 76.9864 74.96 76.8889L77.5556 74.3111C77.6531 74.2084 77.7159 74.0776 77.7351 73.9372C77.7542 73.7968 77.7287 73.654 77.6622 73.5289L75.8845 70.1867C76.3097 69.4078 76.6495 68.5853 76.8978 67.7333L80.4534 66.6489C80.5869 66.6059 80.7043 66.5234 80.79 66.4123C80.8757 66.3012 80.9257 66.1668 80.9334 66.0267V62.3467C80.9377 62.2178 80.9069 62.0901 80.8443 61.9774C80.7816 61.8646 80.6895 61.7711 80.5778 61.7067ZM64.88 70.0978C63.7049 70.1013 62.5551 69.756 61.5763 69.1057C60.5975 68.4554 59.8337 67.5293 59.3816 66.4446C58.9294 65.3599 58.8093 64.1655 59.0364 63.0125C59.2635 61.8595 59.8276 60.7999 60.6573 59.9677C61.487 59.1355 62.545 58.5682 63.6973 58.3376C64.8496 58.1071 66.0444 58.2236 67.1304 58.6725C68.2164 59.1214 69.1448 59.8824 69.7981 60.8593C70.4513 61.8361 70.8 62.9848 70.8 64.16C70.8 65.7317 70.1769 67.2393 69.0672 68.3524C67.9575 69.4654 66.4517 70.0931 64.88 70.0978Z" fill="url(#paint2_linear_5717_8316)"/>
</g>
<defs>
<linearGradient id="paint0_linear_5717_8316" x1="46.7467" y1="24.0889" x2="46.7467" y2="45.4222" gradientUnits="userSpaceOnUse">
<stop stop-color="#FD5001"/>
<stop offset="1" stop-color="#FFB901"/>
</linearGradient>
<linearGradient id="paint1_linear_5717_8316" x1="37.2178" y1="51.4768" x2="37.2178" y2="76.5689" gradientUnits="userSpaceOnUse">
<stop stop-color="#FD5001"/>
<stop offset="1" stop-color="#FFB901"/>
</linearGradient>
<linearGradient id="paint2_linear_5717_8316" x1="64.7913" y1="48.0355" x2="64.7913" y2="80.3378" gradientUnits="userSpaceOnUse">
<stop stop-color="#FD5001"/>
<stop offset="1" stop-color="#FFB901"/>
</linearGradient>
<clipPath id="clip0_5717_8316">
<rect width="64" height="64" fill="white" transform="translate(20.6667 20)"/>
</clipPath>
</defs>
</svg>
