<svg width="80" height="80" viewBox="0 0 80 80" fill="none" xmlns="http://www.w3.org/2000/svg">
<rect width="80" height="80" rx="8" fill="#F5C244" fill-opacity="0.1"/>
<path d="M16 22.634V24.4802H30.7692V26.3263H19.6923V28.1725H16V30.0186H28.9231V31.8648H19.6923V33.711H16V35.5571H27.0769V37.4033H19.6923V39.2494H16V41.0956H25.2308V42.9417H19.6923V50.3263C19.6923 51.434 20.4308 52.1725 21.5385 52.1725H23.3846C23.7538 49.034 26.5231 46.4605 29.8462 46.4605C33.1692 46.4605 35.9385 48.8494 36.3077 52.1725H41.8462C42.9538 52.1725 43.6923 51.434 43.6923 50.3263V24.4802C43.6923 23.3725 42.9538 22.634 41.8462 22.634H16ZM47.3846 30.0186C46.2769 30.0186 45.5385 30.7571 45.5385 31.8648V50.3263C45.5385 51.2494 46.2769 52.1725 47.3846 52.1725C47.7538 49.034 50.5231 46.4605 53.8462 46.4605C57.1692 46.4605 59.9385 48.8494 60.3077 52.1725H62.1538C63.2615 52.1725 64 51.434 64 50.3263V41.0956C64 39.434 62.4991 37.4033 62.4991 37.4033L58.4615 31.8648C57.5385 30.7571 56.9846 30.0186 55.6923 30.0186H47.3846ZM51.0769 33.711H55.5188C55.888 33.711 56.2702 34.058 56.2702 34.058L60.1342 39.423C60.5034 39.9768 60.8855 40.5528 60.8855 40.922H51.0769V33.711ZM29.8462 48.8273C28.7152 48.8312 27.6316 49.282 26.8316 50.0816C26.0317 50.8812 25.5804 51.9646 25.576 53.0956C25.5799 54.2269 26.031 55.3108 26.831 56.1107C27.631 56.9107 28.7148 57.3618 29.8462 57.3657C30.9775 57.3618 32.0613 56.9107 32.8613 56.1107C33.6613 55.3108 34.1124 54.2269 34.1163 53.0956C34.1124 51.9643 33.6613 50.8804 32.8613 50.0804C32.0613 49.2805 30.9775 48.8312 29.8462 48.8273ZM53.8462 48.8273C52.7152 48.8312 51.6316 49.282 50.8316 50.0816C50.0317 50.8812 49.5804 51.9646 49.576 53.0956C49.5799 54.2269 50.031 55.3108 50.831 56.1107C51.631 56.9107 52.7148 57.3618 53.8462 57.3657C54.9775 57.3618 56.0613 56.9107 56.8613 56.1107C57.6613 55.3108 58.1124 54.2269 58.1163 53.0956C58.1124 51.9643 57.6613 50.8804 56.8613 50.0804C56.0613 49.2805 54.9775 48.8312 53.8462 48.8273Z" fill="url(#paint0_linear_5717_8402)"/>
<defs>
<linearGradient id="paint0_linear_5717_8402" x1="40" y1="22.634" x2="40" y2="57.3657" gradientUnits="userSpaceOnUse">
<stop stop-color="#FD5001"/>
<stop offset="1" stop-color="#FFB901"/>
</linearGradient>
</defs>
</svg>
